# xmcd
#
# Track frame offsets:
#	150
#	17536
#	34334
#	52912
#	69602
#	80040
#	98879
#	114931
#	125689
#	143208
#	156753
#	171457
#	181578
#	198254
#	216623
#	232358
#	249016
#
# Disc length: 3464 seconds
#
# Revision: 0
# Processed by: cddbd v1.5.2PL0 Copyright (c) Steve Scherf et al.
# Submitted via: Rip'N'TagIt 1.4.0.0 
#
DISCID=f00d8611
DTITLE=The Jalapenos - Go Ape!
DYEAR=2006
DGENRE=Blues
TTITLE0=Hubcaps Over Hollywood
TTITLE1=Out Of My Tiny Mind
TTITLE2=Willow World
TTITLE3=Love, Money And Noise
TTITLE4=(She's My) Alien Baby
TTITLE5=First Across The Line
TTITLE6=Then I Saw You
TTITLE7=Eddie And Gene
TTITLE8=Monster Beat
TTITLE9=For Bela
TTITLE10=Other Side Of The World
TTITLE11=Drink The Place Dry
TTITLE12=Poison Letter From Loretta
TTITLE13=Wedding Bells
TTITLE14=Same Old Same Old
TTITLE15=Missing Link
TTITLE16=Let's Roll
EXTD=
EXTT0=
EXTT1=
EXTT2=
EXTT3=
EXTT4=
EXTT5=
EXTT6=
EXTT7=
EXTT8=
EXTT9=
EXTT10=
EXTT11=
EXTT12=
EXTT13=
EXTT14=
EXTT15=
EXTT16=
PLAYORDER=
